<?xml version="1.0" standalone="no"?>
<!DOCTYPE svg PUBLIC "-//W3C//DTD SVG 20010904//EN"
 "http://www.w3.org/TR/2001/REC-SVG-20010904/DTD/svg10.dtd">
<svg version="1.0" xmlns="http://www.w3.org/2000/svg"
 width="327.000000pt" height="245.000000pt" viewBox="0 0 327.000000 245.000000"
 preserveAspectRatio="xMidYMid meet">

<g transform="translate(0.000000,245.000000) scale(0.100000,-0.100000)"
fill="#000000" stroke="none">
<path d="M1197 1649 c-9 -5 -24 -23 -32 -39 -9 -16 -27 -33 -40 -36 -14 -3
-25 -10 -25 -14 0 -4 -12 -13 -27 -19 -67 -26 -133 -74 -120 -87 4 -4 37 -2
74 5 38 6 142 20 233 31 128 15 168 24 178 37 6 9 12 20 12 25 0 11 -28 10
-35 -2 -12 -20 -26 -10 -14 11 10 19 9 20 -11 14 -12 -4 -27 -1 -36 6 -8 7
-26 14 -39 15 -13 1 -32 11 -44 21 -52 47 -49 46 -74 32z"/>
<path d="M1590 1449 c-91 -10 -234 -26 -319 -35 -136 -15 -152 -19 -135 -31
198 -139 204 -142 256 -98 16 14 40 25 53 25 12 0 28 7 35 15 16 19 51 19 93
1 35 -16 71 -44 238 -189 103 -89 151 -119 165 -104 11 10 -51 124 -102 187
-29 36 -84 96 -123 135 -39 38 -71 73 -71 77 0 5 17 8 38 8 20 0 60 7 87 14
l50 14 -50 0 c-27 0 -124 -9 -215 -19z"/>
<path d="M860 1370 c-12 -8 -10 -10 8 -10 13 0 20 4 17 10 -7 12 -6 12 -25 0z"/>
<path d="M990 1376 c0 -2 7 -7 16 -10 8 -3 12 -2 9 4 -6 10 -25 14 -25 6z"/>
<path d="M910 1351 c0 -6 8 -15 19 -20 12 -7 17 -18 14 -34 -4 -21 -1 -24 26
-24 16 0 37 -5 45 -12 14 -12 12 -17 -15 -42 -29 -27 -32 -28 -59 -14 -16 8
-55 15 -87 15 l-57 0 49 -51 c28 -28 68 -59 90 -70 74 -34 93 -62 60 -89 -27
-23 -16 -48 50 -107 35 -31 76 -79 91 -106 19 -36 49 -66 118 -116 51 -38 106
-84 122 -103 40 -48 70 -65 129 -72 97 -12 210 -45 249 -73 21 -15 48 -45 60
-66 25 -44 21 -48 -62 -66 -31 -7 -210 -48 -397 -91 -187 -43 -403 -93 -481
-111 -136 -31 -141 -33 -136 -55 2 -13 7 -24 11 -24 11 0 300 67 535 124 199
48 507 116 528 116 13 0 38 -101 44 -181 l7 -79 47 0 c54 0 72 15 63 50 -5 19
-3 22 10 17 22 -8 22 12 0 28 -15 11 -15 13 5 19 12 4 22 12 22 18 0 6 -6 6
-15 -2 -9 -7 -19 -10 -22 -6 -4 4 -3 10 3 14 13 9 16 52 3 52 -5 0 -4 9 3 20
10 16 10 22 -1 32 -11 11 -13 10 -6 -2 7 -13 6 -13 -6 -1 -11 11 -12 14 -1 18
10 4 9 10 -4 24 -17 19 -17 20 6 26 22 6 22 7 5 20 -11 7 -13 13 -7 13 15 0
16 46 1 56 -6 3 -8 15 -6 26 5 16 3 17 -11 6 -9 -7 -13 -8 -9 -2 8 14 -18 38
-32 30 -10 -6 -66 93 -57 102 3 3 1 11 -5 18 -7 8 -7 19 -1 30 12 22 4 54 -15
54 -8 0 -12 4 -8 9 3 5 -3 17 -12 27 -21 21 -28 104 -10 116 9 5 9 10 -2 20
-12 11 -13 10 -6 -2 7 -13 6 -13 -6 -2 -12 11 -10 17 16 37 16 13 26 27 22 31
-4 4 -7 3 -7 -3 0 -6 -7 -14 -16 -17 -14 -5 -15 -4 -4 9 7 9 10 18 6 22 -3 3
-6 2 -6 -3 0 -5 -12 -11 -26 -12 -20 -1 -25 2 -20 13 3 8 1 15 -4 15 -6 0 -10
5 -10 10 0 6 7 10 15 10 8 0 14 3 13 8 -1 4 3 17 10 30 12 20 9 26 -10 23 -5
0 -8 6 -8 15 0 14 -2 14 -16 3 -17 -14 -75 -13 -84 1 -6 10 -60 25 -77 22 -7
-2 -13 4 -13 12 0 12 -5 14 -22 7 -13 -4 -32 -6 -43 -4 -35 7 -78 13 -137 17
-51 3 -63 9 -125 59 -37 31 -79 67 -93 79 -14 13 -29 25 -35 27 -38 13 -53 23
-74 50 -14 16 -28 28 -32 26 -4 -3 -28 7 -53 21 -25 14 -46 21 -46 15z m380
-302 c0 -6 -4 -7 -10 -4 -5 3 -10 11 -10 16 0 6 5 7 10 4 6 -3 10 -11 10 -16z
m73 -143 c44 -18 48 -22 45 -50 -4 -45 -28 -42 -70 10 -35 42 -49 70 -30 62 4
-1 29 -12 55 -22z"/>
<path d="M3090 603 c-25 -4 -308 -67 -570 -127 -80 -19 -172 -39 -206 -46 -56
-11 -60 -14 -56 -36 2 -13 10 -24 17 -24 26 0 184 32 300 62 66 16 224 51 350
77 224 46 230 48 230 72 0 25 -16 31 -65 22z"/>
<path d="M2260 341 c0 -18 12 -41 22 -41 7 0 6 5 -1 13 -6 8 -8 16 -5 19 3 3
1 9 -5 13 -6 3 -11 2 -11 -4z"/>
<path d="M2300 230 c0 -5 5 -10 10 -10 6 0 10 5 10 10 0 6 -4 10 -10 10 -5 0
-10 -4 -10 -10z"/>
<path d="M2329 175 c-11 -16 -8 -68 3 -57 5 5 8 22 6 38 -2 16 -6 25 -9 19z"/>
<path d="M2346 125 c-6 -17 5 -48 17 -46 4 1 9 1 11 1 3 0 1 -13 -4 -29 -10
-35 1 -54 28 -49 l21 3 -21 45 c-12 25 -22 51 -24 59 -5 24 -21 33 -28 16z"/>
</g>
</svg>
